<svg width="943.9" height="96" viewBox="0 0 943.9 96" xmlns="http://www.w3.org/2000/svg"><g id="svgGroup" stroke-linecap="round" fill-rule="evenodd" font-size="9pt" stroke="#ebe7e7" stroke-width="0.25mm" fill="#fcfcfc" style="stroke:#ebe7e7;stroke-width:0.25mm;fill:#fcfcfc"><path d="M 876.9 74 L 867.9 74 L 867.9 22 L 876.6 22 L 876.6 30.7 Q 879.4 26.5 883.7 23.65 A 17.205 17.205 0 0 1 892.902 20.809 A 20.858 20.858 0 0 1 893.5 20.8 A 20.994 20.994 0 0 1 897.917 21.24 Q 900.903 21.882 903.185 23.463 A 13.128 13.128 0 0 1 903.65 23.8 A 15.751 15.751 0 0 1 909.098 31.489 A 19.154 19.154 0 0 1 909.2 31.8 Q 912.3 27.2 916.55 24 A 15.669 15.669 0 0 1 923.341 21.116 A 21.446 21.446 0 0 1 927.1 20.8 A 21.437 21.437 0 0 1 931.988 21.322 Q 935.574 22.162 938.063 24.351 A 12.994 12.994 0 0 1 939.75 26.15 A 18.992 18.992 0 0 1 943.161 33.422 Q 943.9 36.472 943.9 40.1 L 943.9 74 L 934.9 74 L 934.9 40.8 A 19.042 19.042 0 0 0 934.563 37.111 Q 934.127 34.905 933.128 33.161 A 10.982 10.982 0 0 0 932.4 32.05 A 7.974 7.974 0 0 0 926.587 28.754 A 10.678 10.678 0 0 0 925.5 28.7 A 11.926 11.926 0 0 0 918.741 30.827 A 15.996 15.996 0 0 0 917.15 32.05 Q 913.3 35.4 910.4 39.9 L 910.4 74 L 901.4 74 L 901.4 40.8 A 19.042 19.042 0 0 0 901.063 37.111 Q 900.627 34.905 899.628 33.161 A 10.982 10.982 0 0 0 898.9 32.05 A 7.974 7.974 0 0 0 893.087 28.754 A 10.678 10.678 0 0 0 892 28.7 A 12.02 12.02 0 0 0 885.681 30.528 A 16.244 16.244 0 0 0 883.7 31.95 Q 879.8 35.2 876.9 39.6 L 876.9 74 Z M 71 74 L 62 74 L 62 0 L 71 0 L 71 30.3 Q 73.8 26.2 78.1 23.5 A 17.572 17.572 0 0 1 85.225 20.991 A 22.595 22.595 0 0 1 88.2 20.8 A 23.225 23.225 0 0 1 93.265 21.318 Q 98.359 22.456 101.35 26.1 Q 105.475 31.126 105.688 39.209 A 33.764 33.764 0 0 1 105.7 40.1 L 105.7 74 L 96.7 74 L 96.7 41.1 Q 96.7 35.5 94.1 32.1 A 8.42 8.42 0 0 0 87.942 28.753 A 11.979 11.979 0 0 0 86.8 28.7 A 13.23 13.23 0 0 0 80.087 30.566 A 17.586 17.586 0 0 0 78.05 31.95 Q 73.9 35.2 71 39.6 L 71 74 Z M 659.2 74 L 650.2 74 L 650.2 0 L 659.2 0 L 659.2 30.3 Q 662 26.2 666.3 23.5 A 17.572 17.572 0 0 1 673.425 20.991 A 22.595 22.595 0 0 1 676.4 20.8 A 23.225 23.225 0 0 1 681.465 21.318 Q 686.559 22.456 689.55 26.1 Q 693.675 31.126 693.888 39.209 A 33.764 33.764 0 0 1 693.9 40.1 L 693.9 74 L 684.9 74 L 684.9 41.1 Q 684.9 35.5 682.3 32.1 A 8.42 8.42 0 0 0 676.142 28.753 A 11.979 11.979 0 0 0 675 28.7 A 13.23 13.23 0 0 0 668.287 30.566 A 17.586 17.586 0 0 0 666.25 31.95 Q 662.1 35.2 659.2 39.6 L 659.2 74 Z M 271.8 69 L 265.6 75 L 238.7 47.3 L 238.7 74 L 229.7 74 L 229.7 0 L 238.7 0 L 238.7 42.3 L 262.2 21 L 267.4 26.7 L 247.3 44.5 L 271.8 69 Z M 178.4 69.8 L 182.2 62.3 A 18.557 18.557 0 0 0 185.344 64.426 Q 186.898 65.27 188.75 65.95 A 24.073 24.073 0 0 0 196.361 67.387 A 27.464 27.464 0 0 0 197.2 67.4 Q 202.592 67.4 205.435 65.685 A 7.738 7.738 0 0 0 205.65 65.55 Q 208.5 63.7 208.5 60.8 A 7.123 7.123 0 0 0 208.186 58.653 A 6.212 6.212 0 0 0 207.45 57.1 A 6.384 6.384 0 0 0 206.521 56.006 Q 205.507 55.034 203.834 54.081 A 22.3 22.3 0 0 0 203.6 53.95 A 28.462 28.462 0 0 0 201.606 52.957 Q 199.49 51.995 196.501 50.946 A 103.602 103.602 0 0 0 195.5 50.6 A 46.616 46.616 0 0 1 191.102 48.857 Q 188.988 47.883 187.312 46.795 A 19.335 19.335 0 0 1 184.55 44.65 A 11.324 11.324 0 0 1 181.256 38.654 A 16.794 16.794 0 0 1 180.9 35.1 Q 180.9 29.1 186.15 24.95 Q 190.554 21.469 197.808 20.908 A 37.527 37.527 0 0 1 200.7 20.8 A 40.794 40.794 0 0 1 205.146 21.031 Q 207.454 21.284 209.47 21.815 A 25.234 25.234 0 0 1 209.6 21.85 Q 213.5 22.9 216.6 24.5 L 214.1 31.9 Q 211.4 30.3 207.95 29.3 A 25.024 25.024 0 0 0 203.467 28.453 A 31.837 31.837 0 0 0 200.3 28.3 A 20.632 20.632 0 0 0 197.363 28.495 Q 194.277 28.94 192.4 30.4 A 9.322 9.322 0 0 0 191.042 31.673 Q 190.34 32.492 190.005 33.365 A 4.529 4.529 0 0 0 189.7 35 A 4.921 4.921 0 0 0 191.195 38.552 A 7.082 7.082 0 0 0 191.8 39.1 A 9.88 9.88 0 0 0 193.1 39.969 Q 195.373 41.271 199.798 42.734 A 84.459 84.459 0 0 0 200 42.8 A 67.753 67.753 0 0 1 205.062 44.698 Q 210.989 47.217 213.8 50.1 Q 217.7 54.1 217.7 60.1 Q 217.7 66.848 212.449 70.855 A 16.618 16.618 0 0 1 212.05 71.15 Q 207.31 74.547 199.862 75.095 A 40.423 40.423 0 0 1 196.9 75.2 Q 191 75.2 186.25 73.7 A 30.883 30.883 0 0 1 182.41 72.215 Q 180.429 71.284 178.848 70.136 A 18.229 18.229 0 0 1 178.4 69.8 Z M 498.4 96 L 489.4 96 L 489.4 35.3 A 11.015 11.015 0 0 0 489.273 33.564 Q 488.942 31.498 487.75 30.45 A 5.718 5.718 0 0 0 484.96 29.128 A 7.991 7.991 0 0 0 483.5 29 L 485.4 22 Q 491.262 22 494.322 24.964 A 10.15 10.15 0 0 1 496.9 29.3 Q 497.855 27.867 499.952 25.977 A 38.58 38.58 0 0 1 500.15 25.8 A 18.902 18.902 0 0 1 502.851 23.816 A 25.569 25.569 0 0 1 505.75 22.3 A 16.955 16.955 0 0 1 510.309 21.011 A 21.886 21.886 0 0 1 513.4 20.8 Q 519.4 20.8 524.65 23.95 A 22.329 22.329 0 0 1 531.828 30.917 A 27.464 27.464 0 0 1 533.1 33.05 Q 536.3 39 536.3 47.5 Q 536.3 55.8 533.1 62.05 A 27.846 27.846 0 0 1 529.166 67.882 A 23.029 23.029 0 0 1 524.75 71.75 Q 519.6 75.2 513.6 75.2 Q 509 75.2 505 73.35 A 30.352 30.352 0 0 1 501.584 71.511 Q 499.791 70.384 498.4 69.1 L 498.4 96 Z M 0 73.8 L 0 4.2 A 100.907 100.907 0 0 1 1.856 4.006 Q 4.753 3.729 8.576 3.507 A 270.552 270.552 0 0 1 8.7 3.5 A 168.416 168.416 0 0 1 13.537 3.295 Q 16.008 3.224 18.745 3.206 A 285.352 285.352 0 0 1 20.6 3.2 Q 29 3.2 34.859 5.289 A 22.604 22.604 0 0 1 40.3 8.05 A 16.711 16.711 0 0 1 44.863 12.707 Q 47.054 16.14 47.191 20.601 A 19.526 19.526 0 0 1 47.2 21.2 A 17.052 17.052 0 0 1 46.573 25.92 A 13.798 13.798 0 0 1 44.25 30.55 Q 41.3 34.4 35.7 36.9 A 30.217 30.217 0 0 1 40.336 38.96 Q 43.813 40.894 46 43.55 Q 49.5 47.8 49.5 54 Q 49.5 63.315 42.29 68.928 A 22.979 22.979 0 0 1 42 69.15 A 24.681 24.681 0 0 1 34.623 72.86 Q 28.579 74.8 20.2 74.8 A 221.836 221.836 0 0 1 12.12 74.658 A 187.566 187.566 0 0 1 8.65 74.5 A 227.449 227.449 0 0 1 6.066 74.344 Q 3.259 74.157 1.195 73.938 A 65.535 65.535 0 0 1 0 73.8 Z M 384.9 56.1 L 384.9 31.7 L 375.9 31.7 L 375.9 23.9 L 385.1 23.9 L 387 7.5 L 393.9 7.5 L 393.9 23.9 L 408.3 23.9 L 408.3 31.7 L 393.9 31.7 L 393.9 56.8 A 21.559 21.559 0 0 0 394.068 59.596 Q 394.541 63.202 396.35 64.9 Q 398.8 67.2 402.2 67.2 Q 404.7 67.2 406.95 66.4 Q 409.2 65.6 411.1 64.5 L 413.6 71.7 A 18.546 18.546 0 0 1 411.982 72.556 Q 411.18 72.935 410.234 73.308 A 43.365 43.365 0 0 1 408.2 74.05 Q 404.8 75.2 401.1 75.2 Q 393.6 75.2 389.25 70.25 A 16.116 16.116 0 0 1 386.022 64.348 Q 385.259 61.917 385.015 58.98 A 34.777 34.777 0 0 1 384.9 56.1 Z M 612.5 56.1 L 612.5 31.7 L 603.5 31.7 L 603.5 23.9 L 612.7 23.9 L 614.6 7.5 L 621.5 7.5 L 621.5 23.9 L 635.9 23.9 L 635.9 31.7 L 621.5 31.7 L 621.5 56.8 A 21.559 21.559 0 0 0 621.668 59.596 Q 622.141 63.202 623.95 64.9 Q 626.4 67.2 629.8 67.2 Q 632.3 67.2 634.55 66.4 Q 636.8 65.6 638.7 64.5 L 641.2 71.7 A 18.546 18.546 0 0 1 639.582 72.556 Q 638.78 72.935 637.834 73.308 A 43.365 43.365 0 0 1 635.8 74.05 Q 632.4 75.2 628.7 75.2 Q 621.2 75.2 616.85 70.25 A 16.116 16.116 0 0 1 613.622 64.348 Q 612.859 61.917 612.615 58.98 A 34.777 34.777 0 0 1 612.5 56.1 Z M 797.8 23.9 L 795.1 31.5 A 30.422 30.422 0 0 0 792.196 30.224 A 23.42 23.42 0 0 0 789.75 29.45 A 20.543 20.543 0 0 0 786.707 28.924 A 26.355 26.355 0 0 0 784.1 28.8 A 15.889 15.889 0 0 0 776.847 30.443 A 16.132 16.132 0 0 0 772.35 33.85 Q 767.6 38.9 767.6 47.8 A 25.192 25.192 0 0 0 768.305 53.86 A 21.45 21.45 0 0 0 769.6 57.6 A 18.564 18.564 0 0 0 772.51 62.177 A 16.275 16.275 0 0 0 775.15 64.6 Q 778.7 67.2 783.5 67.2 Q 786.665 67.2 789.068 66.61 A 15.08 15.08 0 0 0 790 66.35 Q 792.689 65.503 795.776 63.912 A 49.095 49.095 0 0 0 795.8 63.9 L 798.6 71.5 Q 795.5 73.2 791.65 74.2 Q 787.8 75.2 782.9 75.2 A 26.803 26.803 0 0 1 775.861 74.31 A 22.074 22.074 0 0 1 769.95 71.75 Q 764.4 68.3 761.4 62.15 Q 758.4 56 758.4 48 Q 758.4 40.5 761.45 34.3 Q 764.5 28.1 770.2 24.45 A 23.067 23.067 0 0 1 779.868 21.029 A 29.608 29.608 0 0 1 783.6 20.8 Q 788 20.8 791.35 21.6 Q 794.7 22.4 797.8 23.9 Z M 156.8 26.2 L 156.8 22 L 165 22 L 165 61.4 A 12.15 12.15 0 0 0 165.102 63.036 Q 165.434 65.47 166.85 66.35 Q 168.7 67.5 170.9 67.5 L 169 74.5 A 17.722 17.722 0 0 1 164.735 74.028 Q 159.098 72.628 157.503 67.08 A 13.59 13.59 0 0 1 157.4 66.7 A 21.307 21.307 0 0 1 154.29 70.126 A 28.498 28.498 0 0 1 151.15 72.55 Q 147.2 75.2 141.1 75.2 Q 134.6 75.2 129.3 71.9 A 22.947 22.947 0 0 1 121.887 64.373 A 27.923 27.923 0 0 1 120.85 62.55 A 27.228 27.228 0 0 1 118.22 54.608 A 36.644 36.644 0 0 1 117.7 48.3 A 33.142 33.142 0 0 1 118.697 40.031 A 27.968 27.968 0 0 1 120.85 34.3 Q 124 28.1 129.55 24.45 A 22.297 22.297 0 0 1 140.745 20.844 A 27.388 27.388 0 0 1 142.3 20.8 A 22.584 22.584 0 0 1 147.094 21.29 A 18.703 18.703 0 0 1 150.45 22.35 A 26.002 26.002 0 0 1 154.737 24.644 A 22.103 22.103 0 0 1 156.8 26.2 Z M 314.9 26.2 L 314.9 22 L 323.1 22 L 323.1 61.4 A 12.15 12.15 0 0 0 323.202 63.036 Q 323.534 65.47 324.95 66.35 Q 326.8 67.5 329 67.5 L 327.1 74.5 A 17.722 17.722 0 0 1 322.835 74.028 Q 317.198 72.628 315.603 67.08 A 13.59 13.59 0 0 1 315.5 66.7 A 21.307 21.307 0 0 1 312.39 70.126 A 28.498 28.498 0 0 1 309.25 72.55 Q 305.3 75.2 299.2 75.2 Q 292.7 75.2 287.4 71.9 A 22.947 22.947 0 0 1 279.987 64.373 A 27.923 27.923 0 0 1 278.95 62.55 A 27.228 27.228 0 0 1 276.32 54.608 A 36.644 36.644 0 0 1 275.8 48.3 A 33.142 33.142 0 0 1 276.797 40.031 A 27.968 27.968 0 0 1 278.95 34.3 Q 282.1 28.1 287.65 24.45 A 22.297 22.297 0 0 1 298.845 20.844 A 27.388 27.388 0 0 1 300.4 20.8 A 22.584 22.584 0 0 1 305.194 21.29 A 18.703 18.703 0 0 1 308.55 22.35 A 26.002 26.002 0 0 1 312.837 24.644 A 22.103 22.103 0 0 1 314.9 26.2 Z M 584.4 26.2 L 584.4 22 L 592.6 22 L 592.6 61.4 A 12.15 12.15 0 0 0 592.702 63.036 Q 593.034 65.47 594.45 66.35 Q 596.3 67.5 598.5 67.5 L 596.6 74.5 A 17.722 17.722 0 0 1 592.335 74.028 Q 586.698 72.628 585.103 67.08 A 13.59 13.59 0 0 1 585 66.7 A 21.307 21.307 0 0 1 581.89 70.126 A 28.498 28.498 0 0 1 578.75 72.55 Q 574.8 75.2 568.7 75.2 Q 562.2 75.2 556.9 71.9 A 22.947 22.947 0 0 1 549.487 64.373 A 27.923 27.923 0 0 1 548.45 62.55 A 27.228 27.228 0 0 1 545.82 54.608 A 36.644 36.644 0 0 1 545.3 48.3 A 33.142 33.142 0 0 1 546.297 40.031 A 27.968 27.968 0 0 1 548.45 34.3 Q 551.6 28.1 557.15 24.45 A 22.297 22.297 0 0 1 568.345 20.844 A 27.388 27.388 0 0 1 569.9 20.8 A 22.584 22.584 0 0 1 574.694 21.29 A 18.703 18.703 0 0 1 578.05 22.35 A 26.002 26.002 0 0 1 582.337 24.644 A 22.103 22.103 0 0 1 584.4 26.2 Z M 350 74 L 341 74 L 341 22 L 349.7 22 L 349.7 33.3 Q 351 30 353.2 27.15 Q 355.4 24.3 358.7 22.55 A 14.817 14.817 0 0 1 363.38 21.026 A 19.459 19.459 0 0 1 366.4 20.8 Q 367.9 20.8 369.4 20.95 A 18.972 18.972 0 0 1 370.455 21.084 Q 370.955 21.162 371.382 21.262 A 8.817 8.817 0 0 1 371.9 21.4 L 369.2 30.7 A 9.763 9.763 0 0 0 367.055 30.088 Q 365.959 29.9 364.7 29.9 A 12.958 12.958 0 0 0 358.07 31.746 A 15.609 15.609 0 0 0 357.65 32 Q 354.322 34.086 352.178 38.442 A 22.927 22.927 0 0 0 352.15 38.5 Q 350.387 42.107 350.07 47.328 A 39.09 39.09 0 0 0 350 49.7 L 350 74 Z M 431.6 74 L 422.6 74 L 422.6 22 L 431.3 22 L 431.3 33.3 Q 432.6 30 434.8 27.15 Q 437 24.3 440.3 22.55 A 14.817 14.817 0 0 1 444.98 21.026 A 19.459 19.459 0 0 1 448 20.8 Q 449.5 20.8 451 20.95 A 18.972 18.972 0 0 1 452.055 21.084 Q 452.555 21.162 452.982 21.262 A 8.817 8.817 0 0 1 453.5 21.4 L 450.8 30.7 A 9.763 9.763 0 0 0 448.655 30.088 Q 447.559 29.9 446.3 29.9 A 12.958 12.958 0 0 0 439.67 31.746 A 15.609 15.609 0 0 0 439.25 32 Q 435.922 34.086 433.778 38.442 A 22.927 22.927 0 0 0 433.75 38.5 Q 431.987 42.107 431.67 47.328 A 39.09 39.09 0 0 0 431.6 49.7 L 431.6 74 Z M 816.7 71.75 A 24.559 24.559 0 0 0 821.298 73.84 Q 825.353 75.2 830 75.2 Q 837.4 75.2 843.25 71.8 Q 849.1 68.4 852.5 62.25 A 26.255 26.255 0 0 0 855.153 55.109 A 34.184 34.184 0 0 0 855.9 47.8 A 34.542 34.542 0 0 0 855.415 41.891 A 25.795 25.795 0 0 0 852.45 33.45 Q 849 27.4 843.15 24.1 A 24.848 24.848 0 0 0 838.509 22.073 A 27.738 27.738 0 0 0 830 20.8 A 31.325 31.325 0 0 0 828.42 20.839 A 26.169 26.169 0 0 0 816.8 24.1 Q 810.9 27.4 807.5 33.5 A 26.023 26.023 0 0 0 804.751 41.09 A 35.006 35.006 0 0 0 804.1 48 A 34.82 34.82 0 0 0 804.365 52.354 A 27.451 27.451 0 0 0 807.45 62.15 Q 810.8 68.3 816.7 71.75 Z M 471.5 74 L 462.5 74 L 462.5 22 L 471.5 22 L 471.5 74 Z M 718.4 74 L 709.4 74 L 709.4 22 L 718.4 22 L 718.4 74 Z M 830 67.2 Q 837.9 67.2 842.3 61.85 A 18.802 18.802 0 0 0 846.119 53.76 A 27.105 27.105 0 0 0 846.7 48 Q 846.7 42.8 844.5 38.45 A 19.198 19.198 0 0 0 840.328 32.881 A 18.17 18.17 0 0 0 838.55 31.45 Q 834.8 28.8 830 28.8 A 19.249 19.249 0 0 0 824.774 29.472 A 14.037 14.037 0 0 0 817.7 34 A 17.878 17.878 0 0 0 814.026 41.374 Q 813.3 44.306 813.3 47.8 Q 813.3 53 815.5 57.45 A 19.437 19.437 0 0 0 819.03 62.49 A 17.627 17.627 0 0 0 821.45 64.55 Q 825.2 67.2 830 67.2 Z M 156 60.7 L 156 32.8 Q 153.3 30.9 150.05 29.75 Q 146.8 28.6 143.2 28.6 A 15.924 15.924 0 0 0 138.229 29.354 A 14.024 14.024 0 0 0 134.75 31.05 A 16.301 16.301 0 0 0 129.731 36.474 A 19.962 19.962 0 0 0 129 37.85 A 20.663 20.663 0 0 0 127.247 43.527 A 27.678 27.678 0 0 0 126.9 48 Q 126.9 53.6 129 57.95 A 17.602 17.602 0 0 0 132.106 62.496 A 15.697 15.697 0 0 0 134.8 64.75 Q 138.5 67.2 143.1 67.2 Q 146.9 67.2 150.3 65.35 Q 153.7 63.5 156 60.7 Z M 314.1 60.7 L 314.1 32.8 Q 311.4 30.9 308.15 29.75 Q 304.9 28.6 301.3 28.6 A 15.924 15.924 0 0 0 296.329 29.354 A 14.024 14.024 0 0 0 292.85 31.05 A 16.301 16.301 0 0 0 287.831 36.474 A 19.962 19.962 0 0 0 287.1 37.85 A 20.663 20.663 0 0 0 285.347 43.527 A 27.678 27.678 0 0 0 285 48 Q 285 53.6 287.1 57.95 A 17.602 17.602 0 0 0 290.206 62.496 A 15.697 15.697 0 0 0 292.9 64.75 Q 296.6 67.2 301.2 67.2 Q 305 67.2 308.4 65.35 Q 311.8 63.5 314.1 60.7 Z M 583.6 60.7 L 583.6 32.8 Q 580.9 30.9 577.65 29.75 Q 574.4 28.6 570.8 28.6 A 15.924 15.924 0 0 0 565.829 29.354 A 14.024 14.024 0 0 0 562.35 31.05 A 16.301 16.301 0 0 0 557.331 36.474 A 19.962 19.962 0 0 0 556.6 37.85 A 20.663 20.663 0 0 0 554.847 43.527 A 27.678 27.678 0 0 0 554.5 48 Q 554.5 53.6 556.6 57.95 A 17.602 17.602 0 0 0 559.706 62.496 A 15.697 15.697 0 0 0 562.4 64.75 Q 566.1 67.2 570.7 67.2 Q 574.5 67.2 577.9 65.35 Q 581.3 63.5 583.6 60.7 Z M 498.4 35.4 L 498.4 61 Q 501 63.7 504.4 65.45 Q 507.8 67.2 511.8 67.2 Q 518.494 67.2 522.717 62.016 A 17.38 17.38 0 0 0 522.85 61.85 A 18.792 18.792 0 0 0 526.344 54.544 Q 527.005 51.855 527.088 48.708 A 34.555 34.555 0 0 0 527.1 47.8 Q 527.1 41.8 524.95 37.5 Q 522.8 33.2 519.25 30.9 Q 515.7 28.6 511.4 28.6 A 14.741 14.741 0 0 0 505.773 29.663 A 14.054 14.054 0 0 0 503.65 30.75 Q 500.2 32.9 498.4 35.4 Z M 20.9 41.6 L 9.5 41.6 L 9.5 66.3 Q 14.8 66.9 20.9 66.9 Q 29.8 66.9 34.8 63.7 Q 39.8 60.5 39.8 54.4 A 11.728 11.728 0 0 0 38.928 49.8 Q 37.826 47.187 35.333 45.312 A 14.027 14.027 0 0 0 34.9 45 A 16.7 16.7 0 0 0 30.226 42.799 Q 26.303 41.6 20.9 41.6 Z M 9.5 11.4 L 9.5 34.2 L 20.5 34.2 Q 28.4 34.2 33.05 30.9 Q 37.7 27.6 37.7 22.4 A 10.798 10.798 0 0 0 37.026 18.501 Q 35.939 15.671 33.1 13.85 A 16.643 16.643 0 0 0 28.614 11.886 Q 25.125 10.9 20.5 10.9 Q 17.2 10.9 14.5 11.05 Q 11.8 11.2 9.5 11.4 Z M 736.763 73.262 A 6.418 6.418 0 0 0 741.4 75.2 A 8.605 8.605 0 0 0 742.022 75.178 A 6.461 6.461 0 0 0 746.2 73.35 Q 748.1 71.5 748.1 68.5 A 6.225 6.225 0 0 0 747.521 65.829 A 6.955 6.955 0 0 0 746.05 63.8 A 8.478 8.478 0 0 0 745.529 63.331 A 6.325 6.325 0 0 0 741.4 61.8 A 8.813 8.813 0 0 0 739.547 61.985 A 5.979 5.979 0 0 0 736.5 63.6 A 5.927 5.927 0 0 0 734.932 66.44 A 8.624 8.624 0 0 0 734.7 68.5 Q 734.7 71.2 736.7 73.2 A 8.317 8.317 0 0 0 736.763 73.262 Z M 462.637 11.288 A 5.973 5.973 0 0 0 467 13.1 A 8.175 8.175 0 0 0 468.496 12.969 A 5.647 5.647 0 0 0 471.6 11.35 Q 473.3 9.6 473.3 6.8 A 7.26 7.26 0 0 0 473.3 6.719 A 6.06 6.06 0 0 0 471.45 2.35 A 7.395 7.395 0 0 0 471.392 2.293 A 6.059 6.059 0 0 0 467 0.5 A 8.264 8.264 0 0 0 465.344 0.658 A 5.661 5.661 0 0 0 462.4 2.2 A 5.588 5.588 0 0 0 460.929 4.832 A 7.987 7.987 0 0 0 460.7 6.8 A 5.992 5.992 0 0 0 461.192 9.219 A 6.643 6.643 0 0 0 462.55 11.2 A 7.466 7.466 0 0 0 462.637 11.288 Z M 709.537 11.288 A 5.973 5.973 0 0 0 713.9 13.1 A 8.175 8.175 0 0 0 715.396 12.969 A 5.647 5.647 0 0 0 718.5 11.35 Q 720.2 9.6 720.2 6.8 A 7.26 7.26 0 0 0 720.2 6.719 A 6.06 6.06 0 0 0 718.35 2.35 A 7.395 7.395 0 0 0 718.292 2.293 A 6.059 6.059 0 0 0 713.9 0.5 A 8.264 8.264 0 0 0 712.244 0.658 A 5.661 5.661 0 0 0 709.3 2.2 A 5.588 5.588 0 0 0 707.829 4.832 A 7.987 7.987 0 0 0 707.6 6.8 A 5.992 5.992 0 0 0 708.092 9.219 A 6.643 6.643 0 0 0 709.45 11.2 A 7.466 7.466 0 0 0 709.537 11.288 Z" vector-effect="non-scaling-stroke"/></g></svg>