<svg width="631.7" height="75.201" viewBox="0 0 631.7 75.201" xmlns="http://www.w3.org/2000/svg"><g id="svgGroup" stroke-linecap="round" fill-rule="evenodd" font-size="9pt" stroke="#ebe7e7" stroke-width="0.25mm" fill="#fcfcfc" style="stroke:#ebe7e7;stroke-width:0.25mm;fill:#fcfcfc"><path d="M 299 74 L 287.2 74 L 268.2 6.3 L 277.6 3.3 L 293.4 63.9 L 308.3 11.3 L 320.2 11.3 L 335 63.9 L 350.7 3.6 L 359.5 6.3 L 340.6 74 L 328.8 74 L 314 21.4 L 299 74 Z M 42 74 L 0 74 L 0 4 L 42 4 L 42 12.2 L 9.5 12.2 L 9.5 33.5 L 37.5 33.5 L 37.5 41.5 L 9.5 41.5 L 9.5 65.8 L 42 65.8 L 42 74 Z M 62.5 74 L 53.5 74 L 53.5 22 L 62.2 22 L 62.2 30.7 Q 65 26.5 69.35 23.65 A 17.316 17.316 0 0 1 76.456 21.025 A 22.629 22.629 0 0 1 79.7 20.8 A 23.225 23.225 0 0 1 84.765 21.318 Q 89.859 22.456 92.85 26.1 Q 96.975 31.126 97.188 39.209 A 33.764 33.764 0 0 1 97.2 40.1 L 97.2 74 L 88.2 74 L 88.2 41.1 A 19.265 19.265 0 0 0 87.858 37.359 Q 87.419 35.145 86.419 33.397 A 10.966 10.966 0 0 0 85.55 32.1 A 8.579 8.579 0 0 0 79.273 28.747 A 12.061 12.061 0 0 0 78.2 28.7 A 13.122 13.122 0 0 0 71.351 30.664 A 17.353 17.353 0 0 0 69.5 31.95 Q 65.4 35.2 62.5 39.6 L 62.5 74 Z M 475.3 69.8 L 479.1 62.3 A 18.557 18.557 0 0 0 482.244 64.426 Q 483.798 65.27 485.65 65.95 A 24.073 24.073 0 0 0 493.261 67.387 A 27.464 27.464 0 0 0 494.1 67.4 Q 499.492 67.4 502.335 65.685 A 7.738 7.738 0 0 0 502.55 65.55 Q 505.4 63.7 505.4 60.8 A 7.123 7.123 0 0 0 505.086 58.653 A 6.212 6.212 0 0 0 504.35 57.1 A 6.384 6.384 0 0 0 503.421 56.006 Q 502.407 55.034 500.734 54.081 A 22.3 22.3 0 0 0 500.5 53.95 A 28.462 28.462 0 0 0 498.506 52.957 Q 496.39 51.995 493.401 50.946 A 103.602 103.602 0 0 0 492.4 50.6 A 46.616 46.616 0 0 1 488.002 48.857 Q 485.888 47.883 484.212 46.795 A 19.335 19.335 0 0 1 481.45 44.65 A 11.324 11.324 0 0 1 478.156 38.654 A 16.794 16.794 0 0 1 477.8 35.1 Q 477.8 29.1 483.05 24.95 Q 487.454 21.469 494.708 20.908 A 37.527 37.527 0 0 1 497.6 20.8 A 40.794 40.794 0 0 1 502.046 21.031 Q 504.354 21.284 506.37 21.815 A 25.234 25.234 0 0 1 506.5 21.85 Q 510.4 22.9 513.5 24.5 L 511 31.9 Q 508.3 30.3 504.85 29.3 A 25.024 25.024 0 0 0 500.367 28.453 A 31.837 31.837 0 0 0 497.2 28.3 A 20.632 20.632 0 0 0 494.263 28.495 Q 491.177 28.94 489.3 30.4 A 9.322 9.322 0 0 0 487.942 31.673 Q 487.24 32.492 486.905 33.365 A 4.529 4.529 0 0 0 486.6 35 A 4.921 4.921 0 0 0 488.095 38.552 A 7.082 7.082 0 0 0 488.7 39.1 A 9.88 9.88 0 0 0 490 39.969 Q 492.273 41.271 496.698 42.734 A 84.459 84.459 0 0 0 496.9 42.8 A 67.753 67.753 0 0 1 501.962 44.698 Q 507.889 47.217 510.7 50.1 Q 514.6 54.1 514.6 60.1 Q 514.6 66.848 509.349 70.855 A 16.618 16.618 0 0 1 508.95 71.15 Q 504.21 74.547 496.762 75.095 A 40.423 40.423 0 0 1 493.8 75.2 Q 487.9 75.2 483.15 73.7 A 30.883 30.883 0 0 1 479.31 72.215 Q 477.329 71.284 475.748 70.136 A 18.229 18.229 0 0 1 475.3 69.8 Z M 428.8 69.7 L 428.8 74 L 420.4 74 L 420.4 0 L 429.4 0 L 429.4 27.4 Q 431.4 25.1 435.25 22.95 A 16.584 16.584 0 0 1 440.481 21.128 A 22.424 22.424 0 0 1 444.4 20.8 Q 450.4 20.8 455.65 23.95 A 22.329 22.329 0 0 1 462.828 30.917 A 27.464 27.464 0 0 1 464.1 33.05 Q 467.3 39 467.3 47.5 A 33.315 33.315 0 0 1 466.613 54.388 A 27.75 27.75 0 0 1 465.3 58.8 A 29.367 29.367 0 0 1 462.139 64.804 A 25.482 25.482 0 0 1 459.95 67.55 A 24.894 24.894 0 0 1 453.819 72.464 A 23.302 23.302 0 0 1 452.4 73.2 A 20.006 20.006 0 0 1 445.034 75.16 A 19.209 19.209 0 0 1 443.8 75.2 Q 439.3 75.2 435.35 73.55 A 30.274 30.274 0 0 1 432.047 71.942 Q 430.222 70.903 428.8 69.7 Z M 192.5 51.7 L 156.1 51.7 A 24.088 24.088 0 0 0 157.239 56.725 Q 158.575 60.538 161.2 63.1 Q 165.4 67.2 172.3 67.2 Q 176.8 67.2 180.4 66.25 Q 184 65.3 187.3 63.8 L 189.4 71.5 A 40.77 40.77 0 0 1 185.065 73.126 A 51.863 51.863 0 0 1 181.3 74.15 A 38.914 38.914 0 0 1 176.208 74.969 A 52.025 52.025 0 0 1 171.2 75.2 A 28.318 28.318 0 0 1 163.454 74.195 A 21.108 21.108 0 0 1 153.45 68.05 A 23.521 23.521 0 0 1 148.245 58.51 Q 146.9 53.845 146.9 48 A 35.359 35.359 0 0 1 147.733 40.178 A 28.84 28.84 0 0 1 149.85 34.05 A 24.642 24.642 0 0 1 154.866 26.968 A 22.887 22.887 0 0 1 158.1 24.35 A 21.048 21.048 0 0 1 168.359 20.878 A 26.205 26.205 0 0 1 170.4 20.8 Q 177.9 20.8 182.85 24.05 Q 187.8 27.3 190.3 32.8 A 28.185 28.185 0 0 1 192.726 42.664 A 33.434 33.434 0 0 1 192.8 44.9 A 75.204 75.204 0 0 1 192.509 51.597 A 69.426 69.426 0 0 1 192.5 51.7 Z M 408.1 51.7 L 371.7 51.7 A 24.088 24.088 0 0 0 372.839 56.725 Q 374.175 60.538 376.8 63.1 Q 381 67.2 387.9 67.2 Q 392.4 67.2 396 66.25 Q 399.6 65.3 402.9 63.8 L 405 71.5 A 40.77 40.77 0 0 1 400.665 73.126 A 51.863 51.863 0 0 1 396.9 74.15 A 38.914 38.914 0 0 1 391.808 74.969 A 52.025 52.025 0 0 1 386.8 75.2 A 28.318 28.318 0 0 1 379.054 74.195 A 21.108 21.108 0 0 1 369.05 68.05 A 23.521 23.521 0 0 1 363.845 58.51 Q 362.5 53.845 362.5 48 A 35.359 35.359 0 0 1 363.333 40.178 A 28.84 28.84 0 0 1 365.45 34.05 A 24.642 24.642 0 0 1 370.466 26.968 A 22.887 22.887 0 0 1 373.7 24.35 A 21.048 21.048 0 0 1 383.959 20.878 A 26.205 26.205 0 0 1 386 20.8 Q 393.5 20.8 398.45 24.05 Q 403.4 27.3 405.9 32.8 A 28.185 28.185 0 0 1 408.326 42.664 A 33.434 33.434 0 0 1 408.4 44.9 A 75.204 75.204 0 0 1 408.109 51.597 A 69.426 69.426 0 0 1 408.1 51.7 Z M 631.4 51.7 L 595 51.7 A 24.088 24.088 0 0 0 596.139 56.725 Q 597.475 60.538 600.1 63.1 Q 604.3 67.2 611.2 67.2 Q 615.7 67.2 619.3 66.25 Q 622.9 65.3 626.2 63.8 L 628.3 71.5 A 40.77 40.77 0 0 1 623.965 73.126 A 51.863 51.863 0 0 1 620.2 74.15 A 38.914 38.914 0 0 1 615.108 74.969 A 52.025 52.025 0 0 1 610.1 75.2 A 28.318 28.318 0 0 1 602.354 74.195 A 21.108 21.108 0 0 1 592.35 68.05 A 23.521 23.521 0 0 1 587.145 58.51 Q 585.8 53.845 585.8 48 A 35.359 35.359 0 0 1 586.633 40.178 A 28.84 28.84 0 0 1 588.75 34.05 A 24.642 24.642 0 0 1 593.766 26.968 A 22.887 22.887 0 0 1 597 24.35 A 21.048 21.048 0 0 1 607.259 20.878 A 26.205 26.205 0 0 1 609.3 20.8 Q 616.8 20.8 621.75 24.05 Q 626.7 27.3 629.2 32.8 A 28.185 28.185 0 0 1 631.626 42.664 A 33.434 33.434 0 0 1 631.7 44.9 A 75.204 75.204 0 0 1 631.409 51.597 A 69.426 69.426 0 0 1 631.4 51.7 Z M 114.7 56.1 L 114.7 31.7 L 105.7 31.7 L 105.7 23.9 L 114.9 23.9 L 116.8 7.5 L 123.7 7.5 L 123.7 23.9 L 138.1 23.9 L 138.1 31.7 L 123.7 31.7 L 123.7 56.8 A 21.559 21.559 0 0 0 123.868 59.596 Q 124.341 63.202 126.15 64.9 Q 128.6 67.2 132 67.2 Q 134.5 67.2 136.75 66.4 Q 139 65.6 140.9 64.5 L 143.4 71.7 A 18.546 18.546 0 0 1 141.782 72.556 Q 140.98 72.935 140.034 73.308 A 43.365 43.365 0 0 1 138 74.05 Q 134.6 75.2 130.9 75.2 Q 123.4 75.2 119.05 70.25 A 16.116 16.116 0 0 1 115.822 64.348 Q 115.059 61.917 114.815 58.98 A 34.777 34.777 0 0 1 114.7 56.1 Z M 553.6 56.1 L 553.6 31.7 L 544.6 31.7 L 544.6 23.9 L 553.8 23.9 L 555.7 7.5 L 562.6 7.5 L 562.6 23.9 L 577 23.9 L 577 31.7 L 562.6 31.7 L 562.6 56.8 A 21.559 21.559 0 0 0 562.768 59.596 Q 563.241 63.202 565.05 64.9 Q 567.5 67.2 570.9 67.2 Q 573.4 67.2 575.65 66.4 Q 577.9 65.6 579.8 64.5 L 582.3 71.7 A 18.546 18.546 0 0 1 580.682 72.556 Q 579.88 72.935 578.934 73.308 A 43.365 43.365 0 0 1 576.9 74.05 Q 573.5 75.2 569.8 75.2 Q 562.3 75.2 557.95 70.25 A 16.116 16.116 0 0 1 554.722 64.348 Q 553.959 61.917 553.715 58.98 A 34.777 34.777 0 0 1 553.6 56.1 Z M 213.8 74 L 204.8 74 L 204.8 22 L 213.5 22 L 213.5 33.3 Q 214.8 30 217 27.15 Q 219.2 24.3 222.5 22.55 A 14.817 14.817 0 0 1 227.18 21.026 A 19.459 19.459 0 0 1 230.2 20.8 Q 231.7 20.8 233.2 20.95 A 18.972 18.972 0 0 1 234.255 21.084 Q 234.755 21.162 235.182 21.262 A 8.817 8.817 0 0 1 235.7 21.4 L 233 30.7 A 9.763 9.763 0 0 0 230.855 30.088 Q 229.759 29.9 228.5 29.9 A 12.958 12.958 0 0 0 221.87 31.746 A 15.609 15.609 0 0 0 221.45 32 Q 218.122 34.086 215.978 38.442 A 22.927 22.927 0 0 0 215.95 38.5 Q 214.187 42.107 213.87 47.328 A 39.09 39.09 0 0 0 213.8 49.7 L 213.8 74 Z M 535.6 74 L 526.6 74 L 526.6 22 L 535.6 22 L 535.6 74 Z M 429.4 35.4 L 429.4 63.2 A 17.99 17.99 0 0 0 433.03 65.385 A 21.802 21.802 0 0 0 434.8 66.1 A 19.462 19.462 0 0 0 440.964 67.196 A 22.039 22.039 0 0 0 441.4 67.2 Q 446.3 67.2 450.05 64.8 Q 453.8 62.4 455.95 58 Q 458.1 53.6 458.1 47.8 Q 458.1 41.8 455.95 37.5 Q 453.8 33.2 450.25 30.9 Q 446.7 28.6 442.4 28.6 A 14.741 14.741 0 0 0 436.773 29.663 A 14.054 14.054 0 0 0 434.65 30.75 Q 431.2 32.9 429.4 35.4 Z M 156 44.4 L 184.5 44.4 A 24.355 24.355 0 0 0 184.096 39.815 Q 183.6 37.231 182.496 35.207 A 12.422 12.422 0 0 0 180.7 32.7 A 12.488 12.488 0 0 0 173.739 28.924 A 18.395 18.395 0 0 0 170.2 28.6 A 13.58 13.58 0 0 0 165.088 29.535 A 12.524 12.524 0 0 0 160.6 32.65 Q 156.8 36.7 156 44.4 Z M 371.6 44.4 L 400.1 44.4 A 24.355 24.355 0 0 0 399.696 39.815 Q 399.2 37.231 398.096 35.207 A 12.422 12.422 0 0 0 396.3 32.7 A 12.488 12.488 0 0 0 389.339 28.924 A 18.395 18.395 0 0 0 385.8 28.6 A 13.58 13.58 0 0 0 380.688 29.535 A 12.524 12.524 0 0 0 376.2 32.65 Q 372.4 36.7 371.6 44.4 Z M 594.9 44.4 L 623.4 44.4 A 24.355 24.355 0 0 0 622.996 39.815 Q 622.5 37.231 621.396 35.207 A 12.422 12.422 0 0 0 619.6 32.7 A 12.488 12.488 0 0 0 612.639 28.924 A 18.395 18.395 0 0 0 609.1 28.6 A 13.58 13.58 0 0 0 603.988 29.535 A 12.524 12.524 0 0 0 599.5 32.65 Q 595.7 36.7 594.9 44.4 Z M 526.737 11.288 A 5.973 5.973 0 0 0 531.1 13.1 A 8.175 8.175 0 0 0 532.596 12.969 A 5.647 5.647 0 0 0 535.7 11.35 Q 537.4 9.6 537.4 6.8 A 7.26 7.26 0 0 0 537.4 6.719 A 6.06 6.06 0 0 0 535.55 2.35 A 7.395 7.395 0 0 0 535.492 2.293 A 6.059 6.059 0 0 0 531.1 0.5 A 8.264 8.264 0 0 0 529.444 0.658 A 5.661 5.661 0 0 0 526.5 2.2 A 5.588 5.588 0 0 0 525.029 4.832 A 7.987 7.987 0 0 0 524.8 6.8 A 5.992 5.992 0 0 0 525.292 9.219 A 6.643 6.643 0 0 0 526.65 11.2 A 7.466 7.466 0 0 0 526.737 11.288 Z" vector-effect="non-scaling-stroke"/></g></svg>